<svg xmlns="http://www.w3.org/2000/svg" xmlns:xlink="http://www.w3.org/1999/xlink" width="0" height="0" style="display:none;"><symbol viewBox="0 0 24 24" id="equalizer-line"><path d="M6.17071 18C6.58254 16.8348 7.69378 16 9 16C10.3062 16 11.4175 16.8348 11.8293 18H22V20H11.8293C11.4175 21.1652 10.3062 22 9 22C7.69378 22 6.58254 21.1652 6.17071 20H2V18H6.17071ZM12.1707 11C12.5825 9.83481 13.6938 9 15 9C16.3062 9 17.4175 9.83481 17.8293 11H22V13H17.8293C17.4175 14.1652 16.3062 15 15 15C13.6938 15 12.5825 14.1652 12.1707 13H2V11H12.1707ZM6.17071 4C6.58254 2.83481 7.69378 2 9 2C10.3062 2 11.4175 2.83481 11.8293 4H22V6H11.8293C11.4175 7.16519 10.3062 8 9 8C7.69378 8 6.58254 7.16519 6.17071 6H2V4H6.17071ZM9 6C9.55228 6 10 5.55228 10 5C10 4.44772 9.55228 4 9 4C8.44772 4 8 4.44772 8 5C8 5.55228 8.44772 6 9 6ZM15 13C15.5523 13 16 12.5523 16 12C16 11.4477 15.5523 11 15 11C14.4477 11 14 11.4477 14 12C14 12.5523 14.4477 13 15 13ZM9 20C9.55228 20 10 19.5523 10 19C10 18.4477 9.55228 18 9 18C8.44772 18 8 18.4477 8 19C8 19.5523 8.44772 20 9 20Z"></path></symbol><symbol viewBox="0 0 24 24" id="send-plane-line"><path d="M21.7267 2.95694L16.2734 22.0432C16.1225 22.5716 15.7979 22.5956 15.5563 22.1126L11 13L1.9229 9.36919C1.41322 9.16532 1.41953 8.86022 1.95695 8.68108L21.0432 2.31901C21.5716 2.14285 21.8747 2.43866 21.7267 2.95694ZM19.0353 5.09647L6.81221 9.17085L12.4488 11.4255L15.4895 17.5068L19.0353 5.09647Z"></path></symbol><symbol viewBox="0 0 24 24" id="focus-3-line"><path d="M13 1L13.001 4.06201C16.6192 4.51365 19.4869 7.38163 19.9381 11L23 11V13L19.938 13.001C19.4864 16.6189 16.6189 19.4864 13.001 19.938L13 23H11L11 19.9381C7.38163 19.4869 4.51365 16.6192 4.06201 13.001L1 13V11L4.06189 11C4.51312 7.38129 7.38129 4.51312 11 4.06189L11 1H13ZM12 6C8.68629 6 6 8.68629 6 12C6 15.3137 8.68629 18 12 18C15.3137 18 18 15.3137 18 12C18 8.68629 15.3137 6 12 6ZM12 10C13.1046 10 14 10.8954 14 12C14 13.1046 13.1046 14 12 14C10.8954 14 10 13.1046 10 12C10 10.8954 10.8954 10 12 10Z"></path></symbol></svg>